Simulation
nRows=49
nColumns=15
endheader
time  TH_x TH_y TH_z SC_y  SC_z  SC_x  AC_y  AC_z  AC_x  GH_y  GH_z  GH_yy  EL_x  PS_y
0.0  0.000000  0.000000  0.000000  -32.97355906058701  4.743834164546485  18.18389694032429  67.80463656678599  3.547554479950468  -4.206080700734537  44.58989733185403  48.01115639423106  -54.94615089555607  24.13657288049937  0.000000
0.023  0.000000  0.000000  0.000000  -32.789365100472445  5.603489434391823  18.9427710246996  68.16274591132834  4.5503153582821625  -3.4237159794278798  44.56637302214269  49.83235643193955  -54.88454963546325  24.69515925793181  0.000000
0.046  0.000000  0.000000  0.000000  -33.02354880417504  6.445307900191315  19.29297753029522  68.38003112089875  4.989352253302728  -2.5107693745939557  44.72768484556001  51.310796560608324  -54.920759644195805  25.175938891454123  0.000000
0.069  0.000000  0.000000  0.000000  -33.533563698952584  7.006048660278675  19.54070299226926  68.59831751614527  4.932961764966307  -1.7755846941237556  45.013513563818414  52.437725630040816  -55.15263990829509  25.539375106730258  0.000000
0.092  0.000000  0.000000  0.000000  -34.02371377464898  7.373704824244966  19.774423378263982  68.78730222742774  4.622235706614698  -1.3130634024708976  45.322629182944304  53.16924000280256  -55.4940774716947  25.786548674010294  0.000000
0.11499999999999999  0.000000  0.000000  0.000000  -34.41030654222355  7.59169077110217  19.929725476023005  68.91009614863573  4.276661630465486  -0.993365669273823  45.61339378018983  53.54187493294144  -55.88588854770949  25.918456118191163  0.000000
0.138  0.000000  0.000000  0.000000  -34.71367544159705  7.706762320193963  19.972138539341493  69.01263157657237  3.983287422881512  -0.7842851832548713  45.89402139448889  53.68194080875647  -56.3921332461986  25.979915508929437  0.000000
0.161  0.000000  0.000000  0.000000  -34.96920817716452  7.748484188768068  19.92973016868448  69.08450965521538  3.748673937085198  -0.6271841284784662  46.202147553994024  53.648976656076464  -56.97624764173536  25.995092940492423  0.000000
0.184  0.000000  0.000000  0.000000  -35.159052381536625  7.750943721266821  19.81576832008716  69.12468777093811  3.559678736652833  -0.5192771144281685  46.52851541681135  53.51884314574156  -57.65971117276567  25.97852041161842  0.000000
0.207  0.000000  0.000000  0.000000  -35.29952670482278  7.735352204585231  19.66090452696983  69.13428843401095  3.4183579329656184  -0.44157825056195077  46.88724470504528  53.31304805310011  -58.39946927037252  25.93200776401712  0.000000
0.22999999999999998  0.000000  0.000000  0.000000  -35.38772855488945  7.708262413524408  19.46555139371195  69.11160392335682  3.3091892051791225  -0.3860720824311831  47.27079516217856  53.07021697970156  -59.19642325430143  25.87522729136106  0.000000
0.253  0.000000  0.000000  0.000000  -35.435168971126714  7.673192009091311  19.248356489379862  69.07194708966448  3.2320553336900533  -0.35294641132316734  47.68262804233383  52.8030238260863  -60.032249464279055  25.80652557587192  0.000000
0.276  0.000000  0.000000  0.000000  -35.4428211436076  7.634086084296414  19.013554851108452  69.01195094164028  3.1707271457555657  -0.3289073971822377  48.1182277620723  52.52231970234102  -60.893141033095134  25.73533046881907  0.000000
0.299  0.000000  0.000000  0.000000  -35.41934686187456  7.592687411142303  18.769766730440036  68.94771305260832  3.1238508745926477  -0.3159909451117394  48.57634785741278  52.234250584413026  -61.772346201579076  25.660501388622386  0.000000
0.322  0.000000  0.000000  0.000000  -35.36792040308506  7.550682137356151  18.520812033242695  68.87604824386946  3.07970284444397  -0.3022156785993478  49.05540728474239  51.937803910153306  -62.65308991539956  25.589213985583577  0.000000
0.345  0.000000  0.000000  0.000000  -35.294727523835114  7.50828840203644  18.270818800921894  68.8104614026656  3.036207915336159  -0.2900800086621479  49.552532399319084  51.63691552512602  -63.53323883080523  25.52161466939815  0.000000
0.368  0.000000  0.000000  0.000000  -35.20276002986094  7.465972216957186  18.02294560542365  68.74853613521539  2.986147701248923  -0.27095061664109177  50.06739575278994  51.32762091899771  -64.39820173984646  25.46240240412851  0.000000
0.391  0.000000  0.000000  0.000000  -35.096289254646734  7.423497282249887  17.77961250627539  68.70008196080019  2.9272188042370195  -0.24691854088902385  50.596253119323464  51.013417097162  -65.24665425351017  25.412474563362828  0.000000
0.414  0.000000  0.000000  0.000000  -34.97781321769492  7.380583447397429  17.543201424252338  68.6634370966267  2.8554435325587355  -0.2126338920633162  51.138270244655395  50.691432054414825  -66.06712945934812  25.3746026068613  0.000000
0.437  0.000000  0.000000  0.000000  -34.851026563072786  7.33745783084004  17.31557816598669  68.64501862306845  2.7684567099632593  -0.16911085651245358  51.68886286794831  50.36535157924519  -66.85700027867063  25.349979842808192  0.000000
0.45999999999999996  0.000000  0.000000  0.000000  -34.71846600538975  7.292953315195216  17.097557107856698  68.64413964166086  2.6643919958337148  -0.11331678247833724  52.2447073652038  50.03527051743518  -67.60684304798524  25.339743439190052  0.000000
0.483  0.000000  0.000000  0.000000  -34.582017792589106  7.247419596188872  16.89220435229905  68.66307699040146  2.5401945088654796  -0.04701944011288887  52.79996823021405  49.70530087094846  -68.31102179790892  25.344611086433723  0.000000
0.506  0.000000  0.000000  0.000000  -34.44175878625235  7.201165692080587  16.704565915443975  68.69961789568627  2.392202738081373  0.02833794170592684  53.352797829167585  49.37633532684888  -68.9640952107505  25.365282979253344  0.000000
0.529  0.000000  0.000000  0.000000  -34.30151837376424  7.1532993712277735  16.532403076933253  68.7577009802634  2.2242969640216494  0.11556316225957762  53.90141963068222  49.04927047539659  -69.56871461156834  25.402144133574456  0.000000
0.552  0.000000  0.000000  0.000000  -34.16133526823009  7.104782835090596  16.372949270940946  68.83695300630544  2.0409777769459274  0.21653101720583717  54.44707362775318  48.72308031998094  -70.12719981866583  25.455881748589906  0.000000
0.575  0.000000  0.000000  0.000000  -34.022736535620915  7.056041658550291  16.22716213716823  68.93829399284299  1.844503754664542  0.33158257647242895  54.98996356727932  48.39705251274734  -70.64134133580244  25.526641588647838  0.000000
0.598  0.000000  0.000000  0.000000  -33.88439532843679  7.0072762857085555  16.095490673251764  69.0589773271492  1.6358049201191294  0.4591837716184441  55.5298433598343  48.071518030368836  -71.11270717163  25.61401665478565  0.000000
0.621  0.000000  0.000000  0.000000  -33.74832170013769  6.958595365519418  15.979234333037205  69.19970423450768  1.416605545073808  0.5986414674326535  56.06439316774251  47.746635845924615  -71.541716944075  25.717121073854734  0.000000
0.644  0.000000  0.000000  0.000000  -33.614148507303064  6.909870758277324  15.877667792172034  69.35725967458761  1.1885958457592727  0.7486345090895503  56.59176775894817  47.42314181034468  -71.9294065633147  25.835040456147283  0.000000
0.667  0.000000  0.000000  0.000000  -33.483699996906296  6.861655752542368  15.791994001034707  69.53147240260158  0.9528549366418333  0.9082731597141727  57.109559080691156  47.1013157412072  -72.27670271676007  25.96698059618934  0.000000
0.69  0.000000  0.000000  0.000000  -33.356672180611156  6.813766153828907  15.717898879135298  69.72015071468223  0.7132208270596012  1.0781715174085256  57.6171581046209  46.78170365274059  -72.58547700173715  26.11120971427078  0.000000
0.713  0.000000  0.000000  0.000000  -33.23369293513629  6.767033569968808  15.6557503719689  69.9224753998902  0.47009624832334584  1.2566681540834532  58.1152307977431  46.4658112539273  -72.85928670210049  26.266754667056613  0.000000
0.736  0.000000  0.000000  0.000000  -33.11386031210421  6.721296514431099  15.604260336214857  70.13453443426228  0.22453938238670626  1.4425081159652975  58.6043090212663  46.15430685048435  -73.10083125239214  26.432302298413195  0.000000
0.759  0.000000  0.000000  0.000000  -32.99851742314919  6.6772046697875265  15.562907555673299  70.35567475899462  -0.021596514779408982  1.634355102965627  59.08361538888103  45.8485269104831  -73.31328003270247  26.60650783578644  0.000000
0.782  0.000000  0.000000  0.000000  -32.886697789852455  6.634646495174374  15.530327635849835  70.58205987865503  -0.26669452708013053  1.8306647504968123  59.55263280521572  45.54922025109334  -73.49895208443033  26.787601166785798  0.000000
0.8049999999999999  0.000000  0.000000  0.000000  -32.77959139644503  6.594049006806952  15.506007267314954  70.81296134024294  -0.5089032084602426  2.029958576063425  60.009898475808  45.25781632495882  -73.66057183698132  26.974021905570975  0.000000
0.828  0.000000  0.000000  0.000000  -32.676410220927366  6.5553724148551815  15.488656578618665  71.04471948202738  -0.746719358956765  2.2305394779578998  60.45457360332993  44.975291438370654  -73.80030022582193  27.163936206336736  0.000000
0.851  0.000000  0.000000  0.000000  -32.57846410557743  6.518904974375009  15.477872294281369  71.27665958393105  -0.9784520982669427  2.430919172606387  60.88482289312324  44.70304520455651  -73.9203009623389  27.35575737714107  0.000000
0.874  0.000000  0.000000  0.000000  -32.485114925572276  6.484436800763841  15.472470401335478  71.5054624074332  -1.2026717439471721  2.6292222355279304  61.299295349961135  44.44204659202466  -74.02244590910156  27.547680672256657  0.000000
0.897  0.000000  0.000000  0.000000  -32.39777748291822  6.452495637258645  15.472523522666222  71.73057834254645  -1.417958133148278  2.8241311154339437  61.69593801793053  44.193219557781596  -74.10834307278336  27.737838072081498  0.000000
0.9199999999999999  0.000000  0.000000  0.000000  -32.31597561033247  6.42319577795198  15.477326402726604  71.9486793416138  -1.6230236639364757  3.0137014088222185  62.07344792027911  43.95713931926034  -74.17945851787061  27.924294113826846  0.000000
0.943  0.000000  0.000000  0.000000  -32.24150177630758  6.39665169548627  15.48688377849797  72.15922046327069  -1.8165809096864534  3.1962430348145223  62.42922261005094  43.73496652068893  -74.23685014926532  28.105306607082213  0.000000
0.966  0.000000  0.000000  0.000000  -32.1747743138852  6.372861902261879  15.50078428455984  72.35904707216297  -1.9967033883207899  3.369773207413302  62.761871623778376  43.526784224296684  -74.28105144788441  28.279084948584664  0.000000
0.989  0.000000  0.000000  0.000000  -32.117955278569994  6.352909231217856  15.51862913979956  72.54802377057041  -2.1619443735427604  3.533444995812522  63.06921260559575  43.3336831827334  -74.31292584548136  28.443802515222416  0.000000
1.012  0.000000  0.000000  0.000000  -32.07027513123406  6.334500872861556  15.540117225325915  72.72344922994357  -2.3118339576934708  3.684380373927494  63.35071309187953  43.155941574556145  -74.33288176141198  28.598109512337334  0.000000
1.035  0.000000  0.000000  0.000000  -32.031863894627584  6.317692711909344  15.56519697530447  72.88559466772958  -2.447084441437531  3.822508513911918  63.605074014742584  42.99377734842543  -74.34197723033311  28.740499683037545  0.000000
1.058  0.000000  0.000000  0.000000  -32.0015557792072  6.304475629520551  15.590301436916283  73.03332369771341  -2.5666379976319766  3.9494084353050805  63.83161965085391  42.84748046048675  -74.34203276509709  28.868854459132624  0.000000
1.081  0.000000  0.000000  0.000000  -31.9801764903313  6.295135591767248  15.61699768776985  73.1669701012881  -2.6715856092963497  4.064004885489974  64.03039175840175  42.716882541716444  -74.33413245789868  28.982367572109712  0.000000
1.104  0.000000  0.000000  0.000000  -31.964948181891685  6.289552163935556  15.6449277636631  73.28347757224618  -2.7627900903185703  4.164667596539054  64.20039381446576  42.60211808050402  -74.3194976221926  29.08001257115365  0.000000
